<mxfile host="app.diagrams.net" agent="Mozilla/5.0 (Windows NT 10.0; Win64; x64) AppleWebKit/537.36 (KHTML, like Gecko) Chrome/131.0.0.0 Safari/537.36" version="25.0.3">
  <diagram name="Page-1" id="7CJTUNmv1ar2AslrSPsH">
    <mxGraphModel grid="1" page="1" gridSize="10" guides="1" tooltips="1" connect="1" arrows="1" fold="1" pageScale="1" pageWidth="827" pageHeight="1169" math="0" shadow="0">
      <root>
        <mxCell id="0" />
        <mxCell id="1" parent="0" />
        <mxCell id="XLKM8QsxO995X-nU13xt-4" style="edgeStyle=orthogonalEdgeStyle;rounded=0;orthogonalLoop=1;jettySize=auto;html=1;entryX=0.5;entryY=0;entryDx=0;entryDy=0;" edge="1" parent="1" source="XLKM8QsxO995X-nU13xt-1" target="XLKM8QsxO995X-nU13xt-3">
          <mxGeometry relative="1" as="geometry" />
        </mxCell>
        <mxCell id="XLKM8QsxO995X-nU13xt-1" value="&lt;font style=&quot;vertical-align: inherit;&quot;&gt;&lt;font style=&quot;vertical-align: inherit;&quot;&gt;START&lt;/font&gt;&lt;/font&gt;" style="ellipse;whiteSpace=wrap;html=1;" vertex="1" parent="1">
          <mxGeometry x="350" y="280" width="120" height="80" as="geometry" />
        </mxCell>
        <mxCell id="XLKM8QsxO995X-nU13xt-6" style="edgeStyle=orthogonalEdgeStyle;rounded=0;orthogonalLoop=1;jettySize=auto;html=1;exitX=1;exitY=0.5;exitDx=0;exitDy=0;entryX=1;entryY=0.5;entryDx=0;entryDy=0;" edge="1" parent="1" source="XLKM8QsxO995X-nU13xt-2" target="XLKM8QsxO995X-nU13xt-19">
          <mxGeometry relative="1" as="geometry">
            <mxPoint x="690" y="850" as="targetPoint" />
            <mxPoint x="610" y="568" as="sourcePoint" />
            <Array as="points">
              <mxPoint x="465" y="568" />
              <mxPoint x="685" y="568" />
              <mxPoint x="685" y="835" />
            </Array>
          </mxGeometry>
        </mxCell>
        <mxCell id="XLKM8QsxO995X-nU13xt-9" value="không thể xếp&lt;div&gt;&amp;nbsp;loại kết quả&lt;/div&gt;" style="edgeLabel;html=1;align=center;verticalAlign=middle;resizable=0;points=[];" connectable="0" vertex="1" parent="XLKM8QsxO995X-nU13xt-6">
          <mxGeometry x="0.236" y="2" relative="1" as="geometry">
            <mxPoint as="offset" />
          </mxGeometry>
        </mxCell>
        <mxCell id="XLKM8QsxO995X-nU13xt-7" style="edgeStyle=orthogonalEdgeStyle;rounded=0;orthogonalLoop=1;jettySize=auto;html=1;" edge="1" parent="1" source="XLKM8QsxO995X-nU13xt-2">
          <mxGeometry relative="1" as="geometry">
            <mxPoint x="410" y="660" as="targetPoint" />
          </mxGeometry>
        </mxCell>
        <mxCell id="XLKM8QsxO995X-nU13xt-2" value="0 &amp;lt;= n &amp;lt;= 10" style="rhombus;whiteSpace=wrap;html=1;" vertex="1" parent="1">
          <mxGeometry x="355" y="520" width="110" height="100" as="geometry" />
        </mxCell>
        <mxCell id="XLKM8QsxO995X-nU13xt-5" style="edgeStyle=orthogonalEdgeStyle;rounded=0;orthogonalLoop=1;jettySize=auto;html=1;entryX=0.5;entryY=0;entryDx=0;entryDy=0;" edge="1" parent="1" source="XLKM8QsxO995X-nU13xt-3" target="XLKM8QsxO995X-nU13xt-2">
          <mxGeometry relative="1" as="geometry" />
        </mxCell>
        <mxCell id="XLKM8QsxO995X-nU13xt-3" value="input n" style="shape=parallelogram;perimeter=parallelogramPerimeter;whiteSpace=wrap;html=1;fixedSize=1;" vertex="1" parent="1">
          <mxGeometry x="350" y="410" width="120" height="60" as="geometry" />
        </mxCell>
        <mxCell id="XLKM8QsxO995X-nU13xt-8" value="false" style="text;html=1;align=center;verticalAlign=middle;resizable=0;points=[];autosize=1;strokeColor=none;fillColor=none;" vertex="1" parent="1">
          <mxGeometry x="530" y="538" width="50" height="30" as="geometry" />
        </mxCell>
        <mxCell id="XLKM8QsxO995X-nU13xt-10" value="true" style="text;html=1;align=center;verticalAlign=middle;whiteSpace=wrap;rounded=0;" vertex="1" parent="1">
          <mxGeometry x="350" y="620" width="60" height="30" as="geometry" />
        </mxCell>
        <mxCell id="XLKM8QsxO995X-nU13xt-12" style="edgeStyle=orthogonalEdgeStyle;rounded=0;orthogonalLoop=1;jettySize=auto;html=1;" edge="1" parent="1" source="XLKM8QsxO995X-nU13xt-11">
          <mxGeometry relative="1" as="geometry">
            <mxPoint x="510" y="700" as="targetPoint" />
          </mxGeometry>
        </mxCell>
        <mxCell id="XLKM8QsxO995X-nU13xt-13" style="edgeStyle=orthogonalEdgeStyle;rounded=0;orthogonalLoop=1;jettySize=auto;html=1;entryX=1;entryY=0.5;entryDx=0;entryDy=0;entryPerimeter=0;" edge="1" parent="1" source="XLKM8QsxO995X-nU13xt-11" target="gKx2kBxr1KshzgZTANZM-2">
          <mxGeometry relative="1" as="geometry">
            <mxPoint x="410" y="810" as="targetPoint" />
          </mxGeometry>
        </mxCell>
        <mxCell id="XLKM8QsxO995X-nU13xt-11" value="n&amp;gt;=5" style="rhombus;whiteSpace=wrap;html=1;" vertex="1" parent="1">
          <mxGeometry x="370" y="660" width="80" height="80" as="geometry" />
        </mxCell>
        <mxCell id="XLKM8QsxO995X-nU13xt-14" value="true" style="text;html=1;align=center;verticalAlign=middle;resizable=0;points=[];autosize=1;strokeColor=none;fillColor=none;" vertex="1" parent="1">
          <mxGeometry x="365" y="758" width="40" height="30" as="geometry" />
        </mxCell>
        <mxCell id="XLKM8QsxO995X-nU13xt-21" value="" style="edgeStyle=orthogonalEdgeStyle;rounded=0;orthogonalLoop=1;jettySize=auto;html=1;" edge="1" parent="1" target="XLKM8QsxO995X-nU13xt-19">
          <mxGeometry relative="1" as="geometry">
            <mxPoint x="450" y="870" as="sourcePoint" />
          </mxGeometry>
        </mxCell>
        <mxCell id="XLKM8QsxO995X-nU13xt-20" value="" style="edgeStyle=orthogonalEdgeStyle;rounded=0;orthogonalLoop=1;jettySize=auto;html=1;" edge="1" parent="1" target="XLKM8QsxO995X-nU13xt-19">
          <mxGeometry relative="1" as="geometry">
            <mxPoint x="570" y="740" as="sourcePoint" />
            <Array as="points">
              <mxPoint x="570" y="710" />
              <mxPoint x="571" y="710" />
              <mxPoint x="571" y="768" />
              <mxPoint x="580" y="768" />
            </Array>
          </mxGeometry>
        </mxCell>
        <mxCell id="XLKM8QsxO995X-nU13xt-18" value="false" style="text;html=1;align=center;verticalAlign=middle;resizable=0;points=[];autosize=1;strokeColor=none;fillColor=none;" vertex="1" parent="1">
          <mxGeometry x="445" y="668" width="50" height="30" as="geometry" />
        </mxCell>
        <mxCell id="XLKM8QsxO995X-nU13xt-19" value="END" style="ellipse;whiteSpace=wrap;html=1;" vertex="1" parent="1">
          <mxGeometry x="520" y="795" width="120" height="80" as="geometry" />
        </mxCell>
        <mxCell id="gKx2kBxr1KshzgZTANZM-2" value="xếp loại&lt;div&gt;&amp;nbsp;ĐẠT&lt;/div&gt;" style="shape=or;whiteSpace=wrap;html=1;direction=north;" vertex="1" parent="1">
          <mxGeometry x="370" y="815" width="80" height="60" as="geometry" />
        </mxCell>
        <mxCell id="gKx2kBxr1KshzgZTANZM-4" value="xếp loại&amp;nbsp;&lt;div&gt;không&lt;/div&gt;&lt;div&gt;ĐẠT&lt;/div&gt;" style="shape=or;whiteSpace=wrap;html=1;" vertex="1" parent="1">
          <mxGeometry x="510" y="668" width="60" height="80" as="geometry" />
        </mxCell>
      </root>
    </mxGraphModel>
  </diagram>
</mxfile>
